<svg xmlns="http://www.w3.org/2000/svg" viewBox="0 0 24 24">
  <defs>
    <mask id="body">
      <rect width="24" height="24" fill="white"/>
      <circle cx="6.6" cy="15.2" r="5.95" fill="black"/>
      <circle cx="17.4" cy="15.2" r="5.95" fill="black"/>
      <circle cx="12" cy="12.1" r="2.7" fill="black"/>
    </mask>
    <mask id="rings">
      <rect width="24" height="24" fill="white"/>
      <circle cx="12" cy="12.1" r="2.7" fill="black"/>
    </mask>
  </defs>
  <g fill="#2563eb" mask="url(#body)">
    <path d="M3.83,10.98 L7.09,4.06 A1.7,1.7 0 0 1 10.31,5.14 L8.77,12.62 Z"/>
    <path d="M20.17,10.98 L16.91,4.06 A1.7,1.7 0 0 0 13.69,5.14 L15.23,12.62 Z"/>
    <path d="M10.75,6.2 A1.25,1.25 0 0 1 13.25,6.2 L13.05,12.2 L10.95,12.2 Z"/>
  </g>
  <g fill="none" stroke="#2563eb" mask="url(#rings)">
    <circle cx="6.6" cy="15.2" r="4.3" stroke-width="2.2"/>
    <circle cx="17.4" cy="15.2" r="4.3" stroke-width="2.2"/>
  </g>
  <circle cx="12" cy="12.1" r="1.5" fill="none" stroke="#2563eb" stroke-width="1.2"/>
  <g fill="none" stroke="#2563eb" stroke-width="0.8" stroke-linecap="round">
    <path d="M4.11,14.98 A2.5,2.5 0 0 1 6.38,12.71"/>
    <path d="M14.91,14.98 A2.5,2.5 0 0 1 17.18,12.71"/>
  </g>
</svg>
